<?xml version="1.0" encoding="UTF-8"?>
<!DOCTYPE svg PUBLIC "-//W3C//DTD SVG 1.1//EN" "http://www.w3.org/Graphics/SVG/1.1/DTD/svg11.dtd">
<!-- Creator: CorelDRAW X5 -->
<svg xmlns="http://www.w3.org/2000/svg" xml:space="preserve" width="191.139mm" height="130mm" style="shape-rendering:geometricPrecision; text-rendering:geometricPrecision; image-rendering:optimizeQuality; fill-rule:evenodd; clip-rule:evenodd"
viewBox="0 0 19114 13000"
 xmlns:xlink="http://www.w3.org/1999/xlink">
 <defs>
  <style type="text/css">
   <![CDATA[
    .fil3 {fill:#332C2B;fill-rule:nonzero}
    .fil2 {fill:#767575;fill-rule:nonzero}
    .fil1 {fill:#E73328;fill-rule:nonzero}
    .fil0 {fill:#FEFEFE;fill-rule:nonzero}
   ]]>
  </style>
 </defs>
 <g id="__x0023_Layer_x0020_1">
  <metadata id="CorelCorpID_0Corel-Layer"/>
  <path class="fil0" d="M14099 6138c122,-225 191,-482 191,-754 0,-906 -763,-1640 -1703,-1640 -220,0 -430,40 -622,114 19,164 55,328 107,489 128,-50 268,-78 416,-78 605,0 1096,468 1096,1044 0,221 -72,426 -195,596 219,107 462,184 710,230z"/>
  <path class="fil1" d="M12488 4268c-148,0 -288,28 -416,78 172,535 520,1035 1007,1379 96,68 201,129 311,183 123,-169 195,-374 195,-596 0,-576 -491,-1044 -1096,-1044z"/>
  <path class="fil1" d="M15002 4837c402,-308 1418,-975 1261,-1245 -127,-218 -683,45 -1310,386 -493,269 -386,-56 -73,-529 276,-417 691,-979 460,-1132 -269,-177 -1094,804 -1287,997 -193,194 -369,298 -272,-241 130,-716 155,-1091 -6,-1136 -225,-63 -366,218 -704,1005 -242,565 -453,665 -479,158 -34,-911 -265,-702 -354,-562 -244,385 -327,851 -272,1319 192,-73 402,-114 622,-114 941,0 1703,735 1703,1640 0,272 -69,528 -191,754 537,98 1103,51 1529,-161 71,-35 243,-141 136,-287 -214,-292 -601,-139 -1014,-258 -362,-105 -39,-373 251,-595z"/>
  <path class="fil2" d="M13389 5908c-199,272 -528,450 -901,450 -606,0 -1096,-468 -1096,-1046 0,-437 281,-810 680,-967 -52,-161 -88,-325 -107,-489 -633,239 -1082,832 -1082,1527 0,906 763,1642 1704,1642 658,0 1229,-361 1512,-888 -248,-46 -491,-123 -710,-230z"/>
  <path class="fil3" d="M4227 5496c0,-65 -56,-119 -123,-119l-1115 0c-66,0 -123,54 -123,119 0,64 55,117 123,117l428 0 0 1281c0,70 58,127 130,127 72,0 130,-57 130,-127l0 -1281 427 0c68,0 123,-53 123,-117z"/>
  <path class="fil3" d="M4599 5760c-341,0 -607,279 -607,636l0 5c0,362 271,635 630,635 191,0 337,-57 474,-184 25,-21 40,-51 40,-83 0,-61 -52,-110 -116,-110 -27,0 -51,9 -75,29 -95,86 -196,125 -317,125 -195,0 -338,-122 -374,-315l814 0c67,0 121,-53 121,-118 0,-308 -202,-620 -588,-620zm-5 219l0 0c210,0 309,157 335,317l-677 0c35,-189 171,-317 342,-317z"/>
  <path class="fil3" d="M5472 5299c-70,0 -125,55 -125,123l0 1474c0,69 56,124 127,124 71,0 126,-54 126,-124l0 -1474c0,-68 -58,-123 -128,-123z"/>
  <path class="fil3" d="M6477 6330l362 -346c24,-23 46,-51 46,-93 0,-66 -52,-118 -119,-118 -37,0 -68,15 -97,45l-576 569 0 -965c0,-68 -57,-123 -127,-123 -69,0 -126,55 -126,123l0 1474c0,69 56,124 128,124 71,0 125,-54 125,-124l0 -206 204 -196 384 471c30,38 62,55 106,55 70,0 123,-51 123,-118 0,-30 -9,-53 -31,-81l-403 -493z"/>
  <path class="fil3" d="M7588 5760c-369,0 -657,280 -657,638l0 5c0,355 287,633 652,633 370,0 660,-280 660,-638l0 -4c0,-356 -288,-634 -655,-634zm-400 634l0 0c0,-233 170,-409 395,-409 225,0 403,182 403,413l0 5c0,231 -172,406 -398,406 -224,0 -400,-180 -400,-410l0 -4z"/>
  <path class="fil3" d="M9789 5760c-171,0 -307,65 -413,197 -85,-128 -219,-197 -384,-197 -165,0 -271,68 -345,146l0 -9c0,-69 -57,-124 -128,-124 -69,0 -126,55 -126,124l0 1000c0,69 56,124 128,124 71,0 126,-54 126,-124l0 -581c0,-189 122,-326 291,-326 170,0 267,111 267,306l0 601c0,69 55,124 125,124 71,0 127,-55 127,-124l0 -588c0,-191 116,-319 287,-319 174,0 269,110 269,311l0 597c0,69 56,124 127,124 70,0 126,-55 126,-124l0 -637c0,-309 -183,-500 -479,-500z"/>
  <path class="fil3" d="M4105 7411c-64,0 -117,53 -117,116l0 1415c0,62 54,116 117,116 66,0 120,-52 120,-116l0 -1415c0,-64 -54,-116 -120,-116z"/>
  <path class="fil3" d="M5137 7809c-158,0 -287,58 -382,171l0 -44c0,-64 -51,-113 -117,-113 -63,0 -115,51 -115,113l0 1009c0,64 52,113 117,113 65,0 114,-49 114,-113l0 -589c0,-199 136,-338 332,-338 193,0 304,118 304,324l0 602c0,64 52,113 117,113 64,0 114,-49 114,-113l0 -645c0,-298 -190,-491 -485,-491z"/>
  <path class="fil3" d="M6930 7344c-65,0 -115,49 -115,113l0 549c-115,-131 -260,-197 -431,-197 -290,0 -598,221 -598,631l0 4c0,408 308,628 598,628 172,0 314,-68 431,-206l0 79c0,64 52,113 117,113 65,0 115,-49 115,-113l0 -1488c0,-63 -51,-113 -117,-113zm-108 1093l0 0 0 5c0,261 -211,423 -406,423 -224,0 -394,-182 -394,-423l0 -5c0,-248 163,-421 394,-421 200,0 406,157 406,421z"/>
  <path class="fil3" d="M7877 7809c-365,0 -651,278 -651,633l0 4c0,352 284,628 647,628 366,0 653,-278 653,-632l0 -5c0,-352 -285,-628 -649,-628zm-415 628l0 0c0,-241 177,-423 411,-423 234,0 417,187 417,428l0 4c0,240 -177,421 -412,421 -233,0 -415,-187 -415,-425l0 -5z"/>
  <path class="fil3" d="M9315 7809c-158,0 -286,58 -383,171l0 -44c0,-64 -51,-113 -117,-113 -63,0 -115,51 -115,113l0 1009c0,64 52,113 117,113 66,0 114,-49 114,-113l0 -589c0,-199 136,-338 332,-338 193,0 304,118 304,324l0 602c0,64 51,113 117,113 65,0 115,-49 115,-113l0 -645c0,-298 -191,-491 -485,-491z"/>
  <path class="fil3" d="M10560 7809c-337,0 -600,277 -600,631l0 4c0,359 267,630 623,630 189,0 334,-56 470,-182 23,-20 36,-46 36,-75 0,-55 -47,-100 -106,-100 -23,0 -46,8 -68,26 -98,88 -203,129 -328,129 -204,0 -358,-136 -391,-341l835 0c60,0 110,-48 110,-107 0,-305 -200,-615 -582,-615zm-363 542l0 0c32,-204 176,-343 359,-343 225,0 328,172 352,343l-711 0z"/>
  <path class="fil3" d="M11783 8333l-4 -1c-146,-43 -284,-84 -284,-174l0 -4c0,-85 82,-142 204,-142 94,0 197,30 299,86 10,5 29,12 53,12 59,0 105,-45 105,-100 0,-38 -21,-73 -57,-94 -125,-66 -268,-102 -395,-102 -256,0 -434,147 -434,358l0 5c0,238 240,305 415,353 159,43 279,84 279,179l0 5c0,95 -88,158 -221,158 -122,0 -245,-40 -364,-119 -14,-11 -36,-18 -59,-18 -58,0 -105,45 -105,100 0,39 23,70 44,84 135,94 313,150 475,150 271,0 453,-150 453,-374l0 -4c0,-240 -242,-311 -403,-358z"/>
  <path class="fil3" d="M12502 7823c-63,0 -115,51 -115,113l0 1009c0,64 51,113 117,113 65,0 115,-49 115,-113l0 -1009c0,-64 -52,-113 -117,-113z"/>
  <path class="fil3" d="M13769 7954c-93,-90 -229,-136 -405,-136 -145,0 -268,25 -402,81 -30,12 -64,47 -64,96 0,54 48,100 105,100 13,0 28,-3 42,-9 98,-43 196,-64 300,-64 150,0 329,51 329,291l0 6c-88,-23 -192,-41 -340,-41 -332,0 -538,153 -538,401l0 5c0,254 238,387 473,387 195,0 324,-77 405,-157l0 36c0,62 49,107 113,107 64,0 112,-48 112,-112l0 -635c0,-154 -44,-274 -130,-358zm-92 548l0 0 0 92c0,164 -161,289 -374,289 -132,0 -274,-65 -274,-206l0 -4c0,-135 120,-215 322,-215 109,0 216,14 325,43z"/>
  <path class="fil3" d="M2949 10942c-70,0 -114,-36 -114,-94 0,-15 2,-32 6,-48l66 -247 -60 0 19 -72 62 0 35 -133 80 0 -36 133 138 0 -19 72 -138 0 -67 247c-2,13 -3,23 -3,30 0,25 18,38 52,38 18,0 38,-4 61,-13l14 -5 -22 77 -3 1c-24,10 -46,14 -72,14z"/>
  <path class="fil3" d="M3518 10934l-81 0 69 -258c4,-13 6,-33 6,-47 0,-53 -34,-84 -91,-84 -66,0 -130,57 -151,136l-68 253 -80 0 3 -9 167 -625 80 0 -62 233c32,-32 76,-61 138,-61 90,0 147,56 147,143 0,23 -6,49 -11,70l-66 250z"/>
  <path class="fil3" d="M3872 10944c-120,0 -201,-78 -201,-194 0,-132 108,-279 262,-279 122,0 177,88 177,175 0,29 -6,59 -17,88l-2 5 -341 0c0,2 0,5 0,8 0,76 49,125 125,125 60,0 98,-24 130,-50l6 -5 43 54 -6 5c-37,31 -91,67 -177,67zm-109 -272l0 0 266 0c1,-7 2,-15 2,-25 0,-51 -27,-105 -102,-105 -74,0 -138,51 -166,131z"/>
  <polygon class="fil3" points="4863,10938 4794,10938 4770,10608 4569,10938 4500,10938 4464,10481 4546,10481 4568,10813 4769,10479 4835,10479 4858,10814 5059,10481 5145,10481 "/>
  <path class="fil3" d="M5339 10944c-122,0 -207,-84 -207,-204 0,-143 124,-268 265,-268 122,0 207,83 207,203 0,144 -124,269 -265,269zm54 -400l0 0c-94,0 -180,93 -180,195 0,82 50,132 130,132 94,0 180,-92 180,-194 0,-82 -50,-133 -130,-133z"/>
  <path class="fil3" d="M5724 10934l-81 0 121 -453 81 0 -23 88c53,-64 113,-96 179,-96 5,0 9,0 14,0l9 1 -22 84 -10 0c-102,0 -188,77 -219,197l-48 179z"/>
  <polygon class="fil3" points="6071,10934 5990,10934 6161,10300 6241,10300 6238,10309 "/>
  <path class="fil3" d="M6420 10944c-105,0 -181,-81 -181,-193 0,-152 116,-280 253,-280 94,0 140,53 163,94l71 -266 81 0 -169 634 -81 0 15 -56c-46,44 -95,66 -151,66zm78 -400l0 0c-97,0 -176,90 -176,201 0,76 47,126 117,126 95,0 188,-99 188,-199 0,-74 -54,-128 -129,-128z"/>
  <path class="fil3" d="M7107 10934l-80 0 122 -453 80 0 -122 453zm149 -534l0 0 -90 0 24 -87 90 0 -24 87z"/>
  <path class="fil3" d="M7641 10934l-80 0 69 -258c4,-14 6,-33 6,-47 0,-53 -33,-84 -91,-84 -66,0 -130,57 -151,136l-67 253 -81 0 121 -453 81 0 -14 52c34,-33 77,-61 138,-61 89,0 147,56 147,143 0,22 -6,47 -11,70l-66 250z"/>
  <path class="fil3" d="M8046 11072c-36,0 -68,-10 -100,-32l-6 -4 45 -61 6 5c14,11 42,20 63,20 37,0 68,-22 106,-75l-81 -443 83 0 59 352 227 -352 92 0 -308 464c-62,90 -115,127 -186,127z"/>
  <path class="fil3" d="M8725 10944c-122,0 -207,-84 -207,-204 0,-143 124,-268 265,-268 122,0 208,83 208,203 0,144 -124,269 -266,269zm54 -400l0 0c-94,0 -180,93 -180,195 0,82 50,132 130,132 94,0 180,-92 180,-194 0,-82 -50,-133 -130,-133z"/>
  <path class="fil3" d="M9213 10943c-89,0 -146,-56 -146,-143 0,-18 4,-41 11,-69l66 -250 80 0 -69 257c-3,15 -6,35 -6,47 0,53 34,85 90,85 66,0 131,-59 151,-137l69 -252 80 0 -121 453 -80 0 14 -53c-33,32 -77,62 -138,62z"/>
  <path class="fil3" d="M9630 10934l-81 0 121 -453 81 0 -23 88c56,-68 120,-100 193,-95l9 1 -22 84 -10 0c-102,0 -188,77 -219,197l-48 179z"/>
  <path class="fil3" d="M10541 10934l-81 0 68 -258c4,-13 7,-32 7,-47 0,-53 -34,-84 -91,-84 -66,0 -130,57 -151,136l-67 253 -80 0 3 -9 167 -625 80 0 -63 233c34,-33 77,-61 138,-61 90,0 148,56 148,143 0,22 -6,49 -11,70l-66 250z"/>
  <path class="fil3" d="M10814 10943c-86,0 -145,-53 -145,-129 0,-99 81,-166 203,-166 45,0 95,7 150,22l1 -4c3,-12 5,-28 5,-38 0,-67 -60,-81 -110,-81 -41,0 -77,7 -122,23l-8 3 -14 -70 6 -2c49,-19 94,-27 148,-27 113,0 180,54 180,143 0,17 -3,39 -8,62l-68 254 -80 0 13 -50c-42,39 -92,59 -150,59zm59 -231l0 0c-72,0 -123,39 -123,95 0,43 32,69 85,69 74,0 145,-53 165,-124l6 -24c-32,-8 -78,-17 -133,-17z"/>
  <path class="fil3" d="M11549 10934l-80 0 69 -258c4,-13 6,-32 6,-47 0,-53 -34,-84 -91,-84 -65,0 -129,57 -152,136l-67 253 -80 0 121 -453 81 0 -14 52c33,-32 77,-61 138,-61 89,0 147,56 147,143 0,18 -4,40 -11,70l-66 250z"/>
  <path class="fil3" d="M11884 10944c-105,0 -181,-81 -181,-193 0,-152 116,-280 253,-280 73,0 130,33 163,95l71 -266 80 0 -169 634 -80 0 15 -56c-46,45 -96,66 -151,66zm78 -400l0 0c-97,0 -176,90 -176,201 0,77 46,126 116,126 95,0 188,-99 188,-199 0,-74 -54,-128 -128,-128z"/>
 </g>
</svg>
